# Blender v2.78 (sub 0) OBJ File: 'kitchen.blend'
# www.blender.org
mtllib chair.mtl
o Chair.001_Plane.002
v -12.365558 3.999999 4.516171
v -12.815557 3.999999 4.466172
v -12.815557 3.999999 4.066172
v -12.415558 3.999999 4.466171
v -12.415558 3.999999 4.066172
v -12.815557 -0.000001 4.466172
v -12.815557 -0.000001 4.066172
v -12.415558 -0.000001 4.466171
v -12.415558 -0.000001 4.066172
v -12.365560 3.999999 0.516171
v -12.815559 10.408422 0.116172
v -12.815559 10.408422 0.516172
v -12.365560 10.237298 0.116171
v -12.365560 10.237298 0.516171
v -12.815559 -0.000001 0.116172
v -12.815559 -0.000001 0.516172
v -12.365560 -0.000001 0.116171
v -12.365560 -0.000001 0.516171
v -12.815559 3.999999 0.516172
v -12.365560 3.999999 0.516171
v -12.815559 3.999999 0.116172
v -12.365560 3.999999 0.116171
v -12.517580 4.528001 4.364149
v -12.365558 4.247976 4.516171
v -12.517582 4.528001 0.516171
v -12.365560 4.247976 0.516171
v -12.365560 6.801871 0.516171
v -12.365560 7.101871 0.516171
v -12.365560 6.801871 0.116171
v -12.365560 7.101871 0.116171
v -12.815559 6.801871 0.516172
v -12.815559 7.101871 0.516172
v -12.815559 6.801871 0.116172
v -12.815559 7.101871 0.116172
v -12.365560 7.601871 0.516171
v -12.365560 7.901872 0.516171
v -12.365560 7.601871 0.116171
v -12.365560 7.901872 0.116171
v -12.815559 7.601871 0.516172
v -12.815559 7.901872 0.516172
v -12.815559 7.601871 0.116172
v -12.815559 7.901872 0.116172
v -16.365557 3.999999 4.516173
v -14.365558 3.999999 4.516172
v -15.915558 3.999999 4.466173
v -15.915558 3.999999 4.066174
v -16.315557 3.999999 4.466174
v -16.315557 3.999999 4.066174
v -15.915558 -0.000001 4.466173
v -15.915558 -0.000001 4.066174
v -16.315557 -0.000001 4.466174
v -16.315557 -0.000001 4.066174
v -14.365560 3.999999 0.516172
v -16.365559 3.999999 0.516173
v -14.365560 4.528001 0.516172
v -15.915560 10.408422 0.116173
v -15.915560 10.408422 0.516173
v -16.365561 10.237298 0.116173
v -16.365559 10.237298 0.516173
v -15.915560 -0.000001 0.116173
v -15.915560 -0.000001 0.516173
v -16.365561 -0.000001 0.116173
v -16.365559 -0.000001 0.516173
v -15.915560 3.999999 0.516173
v -16.365559 3.999999 0.516173
v -15.915560 3.999999 0.116173
v -16.365561 3.999999 0.116173
v -14.365560 9.999999 0.116172
v -14.365560 9.999999 0.516172
v -14.365560 3.999999 0.516172
v -14.365560 3.999999 0.116172
v -16.213535 4.528001 4.364151
v -16.365557 4.247976 4.516173
v -14.365558 4.247976 4.516172
v -14.365558 4.528001 4.364150
v -16.213537 4.528001 0.516173
v -16.365559 4.247976 0.516173
v -16.365559 6.801871 0.516173
v -16.365559 7.101871 0.516173
v -16.365561 6.801871 0.116173
v -16.365561 7.101871 0.116173
v -15.915560 6.801871 0.516173
v -15.915560 7.101871 0.516173
v -15.915560 6.801871 0.116173
v -15.915560 7.101871 0.116173
v -14.365560 6.301871 0.516172
v -14.365560 6.601871 0.516172
v -14.365560 6.301871 0.116172
v -14.365560 6.601871 0.116172
v -16.365559 7.601871 0.516173
v -16.365559 7.901872 0.516173
v -16.365561 7.601871 0.116173
v -16.365561 7.901872 0.116173
v -15.915560 7.601871 0.516173
v -15.915560 7.901872 0.516173
v -15.915560 7.601871 0.116173
v -15.915560 7.901872 0.116173
v -14.365560 7.101871 0.516172
v -14.365560 7.401872 0.516172
v -14.365560 7.101871 0.116172
v -14.365560 7.401872 0.116172
vt 0.5345 0.3928
vt 0.7154 0.0294
vt 0.7143 0.3933
vt 0.7652 0.7434
vt 0.7416 0.3795
vt 0.7641 0.3794
vt 0.6217 0.3933
vt 0.6692 0.5616
vt 0.6212 0.5753
vt 0.8820 0.3789
vt 0.7154 0.0293
vt 0.8809 0.0288
vt 0.6687 0.7223
vt 0.6330 0.7588
vt 0.6329 0.7224
vt 0.8402 0.3796
vt 0.8777 0.7434
vt 0.8413 0.7435
vt 0.8027 0.7434
vt 0.7652 0.3796
vt 0.8016 0.3794
vt 0.5356 0.3933
vt 0.5709 0.7569
vt 0.5345 0.7567
vt 0.6779 0.3934
vt 0.7154 0.7570
vt 0.6790 0.7571
vt 0.5842 0.5755
vt 0.6207 0.6129
vt 0.5843 0.6130
vt 0.4918 0.3926
vt 0.5317 0.0288
vt 0.5328 0.3925
vt 0.8391 0.3794
vt 0.8038 0.7435
vt 0.8027 0.3796
vt 0.9202 0.5955
vt 0.8849 0.9591
vt 0.8838 0.5956
vt 0.1688 0.3928
vt 0.2109 0.0289
vt 0.2098 0.3929
vt 0.4926 0.6473
vt 0.5336 0.6472
vt 0.9577 0.4688
vt 0.9217 0.6082
vt 0.9213 0.4689
vt 0.9194 0.3409
vt 0.8830 0.3411
vt 0.1681 0.6477
vt 0.2090 0.6478
vt 0.3515 0.6023
vt 0.2087 0.7479
vt 0.3491 0.9393
vt 0.2080 0.9760
vt 0.6212 0.7583
vt 0.5981 0.3934
vt 0.5726 0.5616
vt 0.5720 0.3935
vt 0.7154 0.3934
vt 0.7427 0.7435
vt 0.7165 0.7435
vt 0.6212 0.5753
vt 0.6206 0.3933
vt 0.4929 0.7201
vt 0.5337 0.6745
vt 0.5338 0.7199
vt 0.4927 0.6746
vt 0.9192 0.2683
vt 0.8829 0.3138
vt 0.8828 0.2684
vt 0.9193 0.3137
vt 0.1678 0.7205
vt 0.2089 0.6751
vt 0.2088 0.7206
vt 0.1680 0.6750
vt 0.3517 0.6750
vt 0.3502 0.6028
vt 0.9581 0.1756
vt 0.9213 0.0289
vt 0.9577 0.0288
vt 0.8027 0.7436
vt 0.8301 0.7799
vt 0.8028 0.7800
vt 0.9581 0.1759
vt 0.9213 0.3221
vt 0.9217 0.1758
vt 0.3500 0.6756
vt 0.8503 0.7799
vt 0.8777 0.7436
vt 0.8776 0.7800
vt 0.5345 0.9595
vt 0.4929 0.7473
vt 0.5339 0.7472
vt 0.9184 0.0288
vt 0.8827 0.2411
vt 0.8820 0.0289
vt 0.9191 0.2410
vt 0.1671 0.9603
vt 0.1678 0.7478
vt 0.9217 0.4688
vt 0.9577 0.3223
vt 0.9581 0.4686
vt 0.3525 0.9385
vt 0.4936 0.9752
vt 0.6329 0.5755
vt 0.6698 0.7222
vt 0.6334 0.7223
vt 0.5345 0.3928
vt 0.7416 0.3795
vt 0.7652 0.7434
vt 0.7641 0.3794
vt 0.6692 0.5616
vt 0.6698 0.3935
vt 0.7154 0.0293
vt 0.6329 0.7224
vt 0.6689 0.7587
vt 0.6687 0.7223
vt 0.8777 0.7434
vt 0.8402 0.3796
vt 0.8413 0.7435
vt 0.7652 0.3796
vt 0.8027 0.7434
vt 0.8016 0.3794
vt 0.5709 0.7569
vt 0.5356 0.3933
vt 0.5345 0.7567
vt 0.7154 0.7570
vt 0.6779 0.3934
vt 0.6790 0.7571
vt 0.6207 0.6129
vt 0.5842 0.5755
vt 0.5843 0.6130
vt 0.5317 0.0288
vt 0.4918 0.3926
vt 0.5328 0.3925
vt 0.8038 0.7435
vt 0.8391 0.3794
vt 0.8027 0.3796
vt 0.8849 0.9591
vt 0.9202 0.5955
vt 0.8838 0.5956
vt 0.2109 0.0289
vt 0.1688 0.3928
vt 0.2098 0.3929
vt 0.4926 0.6473
vt 0.5336 0.6472
vt 0.9213 0.4689
vt 0.9581 0.6081
vt 0.9577 0.4688
vt 0.9194 0.3409
vt 0.8830 0.3411
vt 0.1681 0.6477
vt 0.2090 0.6478
vt 0.2087 0.7479
vt 0.3499 0.7029
vt 0.5848 0.7584
vt 0.5726 0.5616
vt 0.5986 0.5754
vt 0.7427 0.7435
vt 0.7154 0.3934
vt 0.7165 0.7435
vt 0.6212 0.5753
vt 0.5337 0.6745
vt 0.4929 0.7201
vt 0.5338 0.7199
vt 0.4927 0.6746
vt 0.8829 0.3138
vt 0.9192 0.2683
vt 0.8828 0.2684
vt 0.9193 0.3137
vt 0.2089 0.6751
vt 0.1678 0.7205
vt 0.2088 0.7206
vt 0.1680 0.6750
vt 0.3508 0.3933
vt 0.9213 0.0289
vt 0.9577 0.0288
vt 0.8301 0.7799
vt 0.8027 0.7436
vt 0.8028 0.7800
vt 0.9577 0.3223
vt 0.3501 0.6301
vt 0.8777 0.7436
vt 0.8503 0.7799
vt 0.8776 0.7800
vt 0.5345 0.9595
vt 0.4929 0.7473
vt 0.4936 0.9752
vt 0.5339 0.7472
vt 0.8827 0.2411
vt 0.9184 0.0288
vt 0.8820 0.0289
vt 0.9191 0.2410
vt 0.1671 0.9603
vt 0.2080 0.9760
vt 0.1678 0.7478
vt 0.9213 0.3224
vt 0.6693 0.5754
vt 0.6329 0.5755
vt 0.5357 0.0288
vt 0.6437 0.5754
vt 0.7165 0.3794
vt 0.6689 0.7587
vt 0.8766 0.3794
vt 0.7663 0.7435
vt 0.5720 0.3934
vt 0.7143 0.3933
vt 0.6206 0.5754
vt 0.4907 0.0289
vt 0.8402 0.7434
vt 0.9213 0.9589
vt 0.1700 0.0288
vt 0.3508 0.3930
vt 0.5986 0.5754
vt 0.3515 0.6296
vt 0.9217 0.1758
vt 0.8300 0.7435
vt 0.9577 0.3223
vt 0.8504 0.7435
vt 0.9213 0.3224
vt 0.3518 0.7023
vt 0.6693 0.5754
vt 0.5357 0.0288
vt 0.6212 0.5753
vt 0.6437 0.5754
vt 0.7165 0.3794
vt 0.6330 0.7588
vt 0.8766 0.3794
vt 0.7663 0.7435
vt 0.5720 0.3934
vt 0.7143 0.3933
vt 0.6206 0.5754
vt 0.4907 0.0289
vt 0.8402 0.7434
vt 0.9213 0.9589
vt 0.1700 0.0288
vt 0.8300 0.7435
vt 0.9213 0.3221
vt 0.8504 0.7435
vt 0.9577 0.3223
vn 0.0000 -1.0000 -0.0000
vn 1.0000 0.0000 -0.0000
vn -0.0000 -0.0000 -1.0000
vn 0.0000 1.0000 0.0000
vn -1.0000 0.0000 0.0000
vn 0.0000 0.0000 1.0000
vn 0.3554 0.9347 0.0000
vn -0.2548 0.9670 0.0000
vn 0.0000 0.4771 0.8788
vn 0.8788 0.4771 -0.0000
vn -0.3070 0.9517 0.0000
vn 0.3070 -0.9517 0.0000
vn -0.3554 0.9347 0.0000
vn 0.2548 0.9670 0.0000
vn -0.8788 0.4771 0.0000
vn 0.3070 0.9517 0.0000
vn -0.3070 -0.9517 0.0000
usemtl Wood
s off
f 10/1/1 44/2/1 53/3/1
f 10/4/2 24/5/2 1/6/2
f 53/7/3 25/8/3 10/9/3
f 75/10/4 25/11/4 55/12/4
f 3/13/4 4/14/4 5/15/4
f 9/16/3 3/17/3 5/18/3
f 7/19/5 2/20/5 3/21/5
f 8/22/2 5/23/2 4/24/2
f 6/25/6 4/26/6 2/27/6
f 14/28/7 11/29/7 12/30/7
f 19/31/6 18/32/6 20/33/6
f 21/34/5 16/35/5 19/36/5
f 20/37/2 17/38/2 22/39/2
f 22/40/3 15/41/3 21/42/3
f 31/43/6 20/33/6 27/44/6
f 19/45/1 71/46/1 21/47/1
f 27/48/2 22/39/2 29/49/2
f 29/50/3 21/42/3 33/51/3
f 86/52/6 19/31/6 31/43/6
f 42/53/3 68/54/3 11/55/3
f 68/56/8 12/30/8 11/29/8
f 74/57/9 23/58/9 75/59/9
f 23/60/10 26/61/10 25/62/10
f 1/63/6 74/57/6 44/64/6
f 39/65/6 28/66/6 35/67/6
f 32/68/6 27/44/6 28/66/6
f 35/69/2 30/70/2 37/71/2
f 28/72/2 29/49/2 30/70/2
f 37/73/3 34/74/3 41/75/3
f 30/76/3 33/51/3 34/74/3
f 98/77/6 32/68/6 39/65/6
f 21/42/3 88/78/3 33/51/3
f 88/79/11 31/80/11 33/81/11
f 34/82/5 31/83/5 32/84/5
f 89/85/12 32/86/12 87/87/12
f 34/74/3 100/88/3 41/75/3
f 40/89/5 41/90/5 39/91/5
f 14/92/6 40/93/6 36/94/6
f 40/93/6 35/67/6 36/94/6
f 14/95/2 38/96/2 13/97/2
f 36/98/2 37/71/2 38/96/2
f 13/99/3 42/53/3 11/55/3
f 38/100/3 41/75/3 42/53/3
f 101/101/12 40/102/12 99/103/12
f 69/104/6 40/93/6 12/105/6
f 39/106/11 100/107/11 98/108/11
f 44/2/1 54/109/1 53/3/1
f 73/110/5 54/111/5 43/112/5
f 76/113/3 55/114/3 53/7/3
f 76/115/4 75/10/4 55/12/4
f 48/116/4 45/117/4 46/118/4
f 46/119/3 52/120/3 48/121/3
f 45/122/2 50/123/2 46/124/2
f 48/125/5 51/126/5 47/127/5
f 47/128/6 49/129/6 45/130/6
f 56/131/13 59/132/13 57/133/13
f 63/134/6 64/135/6 65/136/6
f 61/137/2 66/138/2 64/139/2
f 62/140/5 65/141/5 67/142/5
f 60/143/3 67/144/3 66/145/3
f 65/136/6 82/146/6 78/147/6
f 66/148/1 70/149/1 64/150/1
f 67/142/5 78/151/5 80/152/5
f 66/145/3 80/153/3 84/154/3
f 64/135/6 86/52/6 82/146/6
f 97/155/3 68/54/3 101/156/3
f 56/131/14 69/157/14 68/56/14
f 74/57/9 72/158/9 73/159/9
f 77/160/15 72/161/15 76/162/15
f 74/57/6 43/163/6 44/64/6
f 79/164/6 94/165/6 90/166/6
f 78/147/6 83/167/6 79/164/6
f 81/168/5 90/169/5 92/170/5
f 80/152/5 79/171/5 81/168/5
f 85/172/3 92/173/3 96/174/3
f 84/154/3 81/175/3 85/172/3
f 83/167/6 98/77/6 94/165/6
f 66/145/3 88/78/3 71/176/3
f 82/177/16 88/79/16 84/178/16
f 82/179/2 85/180/2 83/181/2
f 87/87/17 85/182/17 89/85/17
f 85/172/3 100/88/3 89/183/3
f 96/184/2 95/185/2 94/186/2
f 59/187/6 95/188/6 57/189/6
f 90/166/6 95/188/6 91/190/6
f 93/191/5 59/192/5 58/193/5
f 92/170/5 91/194/5 93/191/5
f 97/155/3 58/195/3 56/196/3
f 96/174/3 93/197/3 97/155/3
f 99/103/17 97/198/17 101/101/17
f 95/188/6 69/104/6 57/189/6
f 98/108/16 96/199/16 94/200/16
f 10/1/1 1/201/1 44/2/1
f 10/4/2 26/61/2 24/5/2
f 26/202/3 10/9/3 25/8/3
f 53/7/3 55/114/3 25/8/3
f 75/10/4 23/203/4 25/11/4
f 3/13/4 2/204/4 4/14/4
f 9/16/3 7/205/3 3/17/3
f 7/19/5 6/206/5 2/20/5
f 8/22/2 9/207/2 5/23/2
f 6/25/6 8/208/6 4/26/6
f 14/28/7 13/209/7 11/29/7
f 19/31/6 16/210/6 18/32/6
f 21/34/5 15/211/5 16/35/5
f 20/37/2 18/212/2 17/38/2
f 22/40/3 17/213/3 15/41/3
f 31/43/6 19/31/6 20/33/6
f 19/45/1 70/149/1 71/46/1
f 27/48/2 20/37/2 22/39/2
f 29/50/3 22/40/3 21/42/3
f 86/52/6 70/214/6 19/31/6
f 42/53/3 101/156/3 68/54/3
f 68/56/8 69/157/8 12/30/8
f 74/57/9 24/215/9 23/58/9
f 23/60/10 24/5/10 26/61/10
f 1/63/6 24/215/6 74/57/6
f 39/65/6 32/68/6 28/66/6
f 32/68/6 31/43/6 27/44/6
f 35/69/2 28/72/2 30/70/2
f 28/72/2 27/48/2 29/49/2
f 37/73/3 30/76/3 34/74/3
f 30/76/3 29/50/3 33/51/3
f 98/77/6 87/216/6 32/68/6
f 21/42/3 71/176/3 88/78/3
f 88/79/11 86/217/11 31/80/11
f 34/82/5 33/218/5 31/83/5
f 89/85/12 34/219/12 32/86/12
f 34/74/3 89/183/3 100/88/3
f 40/89/5 42/220/5 41/90/5
f 14/92/6 12/105/6 40/93/6
f 40/93/6 39/65/6 35/67/6
f 14/95/2 36/98/2 38/96/2
f 36/98/2 35/69/2 37/71/2
f 13/99/3 38/100/3 42/53/3
f 38/100/3 37/73/3 41/75/3
f 101/101/12 42/221/12 40/102/12
f 69/104/6 99/222/6 40/93/6
f 39/106/11 41/223/11 100/107/11
f 44/2/1 43/224/1 54/109/1
f 73/110/5 77/160/5 54/111/5
f 53/7/3 54/225/3 76/113/3
f 77/226/3 76/113/3 54/225/3
f 76/115/4 72/227/4 75/10/4
f 48/116/4 47/228/4 45/117/4
f 46/119/3 50/229/3 52/120/3
f 45/122/2 49/230/2 50/123/2
f 48/125/5 52/231/5 51/126/5
f 47/128/6 51/232/6 49/129/6
f 56/131/13 58/233/13 59/132/13
f 63/134/6 61/234/6 64/135/6
f 61/137/2 60/235/2 66/138/2
f 62/140/5 63/236/5 65/141/5
f 60/143/3 62/237/3 67/144/3
f 65/136/6 64/135/6 82/146/6
f 66/148/1 71/46/1 70/149/1
f 67/142/5 65/141/5 78/151/5
f 66/145/3 67/144/3 80/153/3
f 64/135/6 70/214/6 86/52/6
f 97/155/3 56/196/3 68/54/3
f 56/131/14 57/133/14 69/157/14
f 74/57/9 75/59/9 72/158/9
f 77/160/15 73/110/15 72/161/15
f 74/57/6 73/159/6 43/163/6
f 79/164/6 83/167/6 94/165/6
f 78/147/6 82/146/6 83/167/6
f 81/168/5 79/171/5 90/169/5
f 80/152/5 78/151/5 79/171/5
f 85/172/3 81/175/3 92/173/3
f 84/154/3 80/153/3 81/175/3
f 83/167/6 87/216/6 98/77/6
f 66/145/3 84/154/3 88/78/3
f 82/177/16 86/217/16 88/79/16
f 82/179/2 84/238/2 85/180/2
f 87/87/17 83/239/17 85/182/17
f 85/172/3 96/174/3 100/88/3
f 96/184/2 97/240/2 95/185/2
f 59/187/6 91/190/6 95/188/6
f 90/166/6 94/165/6 95/188/6
f 93/191/5 91/194/5 59/192/5
f 92/170/5 90/169/5 91/194/5
f 97/155/3 93/197/3 58/195/3
f 96/174/3 92/173/3 93/197/3
f 99/103/17 95/241/17 97/198/17
f 95/188/6 99/222/6 69/104/6
f 98/108/16 100/107/16 96/199/16
