# Blender v2.78 (sub 0) OBJ File: 'chest3-final.blend'
# www.blender.org
mtllib chest.mtl
o Cube
v -1.550643 0.000000 -0.542441
v -1.482111 0.000000 -0.542441
v -1.482111 0.000000 -0.473909
v -1.550643 0.000000 -0.473909
v -1.569363 0.120204 -0.561161
v -1.463391 0.120204 -0.561161
v -1.463391 0.120204 -0.455189
v -1.569363 0.120204 -0.455189
v -1.550643 0.000000 1.148738
v -1.482111 0.000000 1.148738
v -1.482111 0.000000 1.217270
v -1.550643 0.000000 1.217270
v -1.569363 0.120204 1.130019
v -1.463391 0.120204 1.130019
v -1.463391 0.120204 1.235990
v -1.569363 0.120204 1.235990
v 1.150114 0.000000 1.148738
v 1.218647 0.000000 1.148738
v 1.218647 0.000000 1.217271
v 1.150114 0.000000 1.217271
v 1.131395 0.120204 1.130019
v 1.237366 0.120204 1.130019
v 1.237366 0.120204 1.235990
v 1.131395 0.120204 1.235990
v 1.150115 0.000000 -0.542441
v 1.218647 0.000000 -0.542441
v 1.218647 0.000000 -0.473909
v 1.150115 0.000000 -0.473909
v 1.131395 0.120204 -0.561160
v 1.237367 0.120204 -0.561160
v 1.237367 0.120204 -0.455189
v 1.131395 0.120204 -0.455189
v 1.338498 0.127154 1.334164
v -1.661502 0.127154 1.334164
v -1.661501 0.127154 -0.665836
v 1.338499 0.127154 -0.665836
v 1.338498 1.127154 1.334164
v -1.661502 1.127154 1.334163
v -1.661501 1.127154 -0.665837
v 1.338498 1.127154 -0.665836
v 1.138498 0.327154 1.134164
v -1.461501 0.327154 1.134164
v -1.461501 0.327154 -0.465836
v 1.138499 0.327154 -0.465836
v 1.138498 1.127154 1.134164
v -1.461502 1.127154 1.134163
v -1.461501 1.127154 -0.465836
v 1.138498 1.127154 -0.465836
v 1.338499 2.504465 -0.986795
v -1.661502 2.504465 -0.986795
v 1.338499 2.789209 -0.720034
v -1.661501 2.789210 -0.720034
v 1.338499 2.950194 -0.364612
v -1.661501 2.950194 -0.364612
v 1.338499 2.962911 0.025361
v -1.661501 2.962912 0.025361
v 1.338499 2.825424 0.390516
v -1.661501 2.825424 0.390516
v 1.338499 1.127154 -0.665836
v -1.661501 1.127154 -0.665836
v 1.338498 1.393914 -0.950581
v -1.661502 1.393915 -0.950581
v 1.338498 1.749337 -1.111566
v -1.661502 1.749337 -1.111566
v 1.338499 2.139310 -1.124283
v -1.661501 2.139310 -1.124283
v 1.172074 2.405936 -0.828394
v -1.495076 2.405937 -0.828394
v 1.172074 2.637567 -0.611392
v -1.495076 2.637567 -0.611392
v 1.172074 2.768515 -0.322275
v -1.495076 2.768516 -0.322275
v 1.172074 2.778864 -0.005054
v -1.495076 2.778864 -0.005054
v 1.147511 2.655471 0.283905
v -1.470514 2.655471 0.283905
v 1.147511 1.297911 -0.560520
v -1.470514 1.297911 -0.560519
v 1.172074 1.502557 -0.798939
v -1.495076 1.502557 -0.798939
v 1.172073 1.791674 -0.929887
v -1.495076 1.791674 -0.929887
v 1.172074 2.108895 -0.940235
v -1.495076 2.108895 -0.940235
vt 0.4905 0.3269
vt 0.0120 0.0079
vt 0.4905 0.0079
vt 0.5029 0.8312
vt 0.9963 0.6667
vt 0.5029 0.6667
vt 0.9972 0.9952
vt 0.6752 0.8342
vt 0.9972 0.8342
vt 0.9963 0.8312
vt 0.5029 0.6667
vt 0.9963 0.6667
vt 0.9972 0.8342
vt 0.6752 0.9952
vt 0.9972 0.9952
vt 0.4352 0.0497
vt 0.0697 0.2789
vt 0.0697 0.0497
vt 0.0006 0.6688
vt 0.4977 0.8326
vt 0.4977 0.6688
vt 0.6656 0.8347
vt 0.3418 0.9966
vt 0.3418 0.8347
vt 0.4977 0.6688
vt 0.0006 0.8326
vt 0.0006 0.6688
vt 0.6656 0.8347
vt 0.3418 0.9966
vt 0.6656 0.9966
vt 0.0202 0.3162
vt 0.4535 0.2853
vt 0.4844 0.3162
vt 0.0202 0.0067
vt 0.0511 0.2853
vt 0.4535 0.0376
vt 0.4844 0.0067
vt 0.0511 0.0376
vt 0.0008 0.5000
vt 0.4968 0.4584
vt 0.4968 0.5000
vt 0.0008 0.4169
vt 0.4968 0.4169
vt 0.4968 0.3753
vt 0.0008 0.3753
vt 0.4968 0.3338
vt 0.0008 0.6662
vt 0.4968 0.6247
vt 0.4968 0.6662
vt 0.0008 0.6247
vt 0.4968 0.5831
vt 0.0008 0.5416
vt 0.4968 0.5416
vt 0.0008 0.5831
vt 0.0198 0.9016
vt 0.3295 0.8432
vt 0.3172 0.9016
vt 0.0547 0.9511
vt 0.2823 0.9511
vt 0.2301 0.9842
vt 0.1685 0.9958
vt 0.1069 0.9842
vt 0.3295 0.8439
vt 0.0198 0.9023
vt 0.0076 0.8439
vt 0.2823 0.9518
vt 0.0547 0.9518
vt 0.1069 0.9848
vt 0.2301 0.9848
vt 0.1685 0.9965
vt 0.5132 0.5418
vt 0.9934 0.5008
vt 0.9934 0.5418
vt 0.5132 0.5829
vt 0.9934 0.5829
vt 0.5132 0.6240
vt 0.9934 0.6240
vt 0.5176 0.6647
vt 0.9890 0.6647
vt 0.5132 0.3775
vt 0.9890 0.3368
vt 0.9934 0.3775
vt 0.5132 0.4186
vt 0.9934 0.4186
vt 0.5132 0.5008
vt 0.9934 0.4597
vt 0.5132 0.4597
vt 0.0426 0.8345
vt 0.2831 0.8745
vt 0.0500 0.8745
vt 0.0773 0.9085
vt 0.2558 0.9085
vt 0.1183 0.9313
vt 0.2148 0.9313
vt 0.1666 0.9393
vt 0.2831 0.8745
vt 0.0426 0.8345
vt 0.0500 0.8745
vt 0.0773 0.9085
vt 0.2148 0.9313
vt 0.1183 0.9313
vt 0.1666 0.9393
vt 0.4840 0.3237
vt 0.0507 0.2927
vt 0.4545 0.2927
vt 0.4840 0.0152
vt 0.0507 0.0462
vt 0.0213 0.0152
vt 0.4545 0.0462
vt 0.0213 0.3237
vt 0.0120 0.3269
vt 0.9963 0.8312
vt 0.6752 0.9952
vt 0.5029 0.8312
vt 0.6752 0.8342
vt 0.4352 0.2789
vt 0.0006 0.8326
vt 0.6656 0.9966
vt 0.4977 0.8326
vt 0.3418 0.8347
vt 0.0008 0.4584
vt 0.0008 0.3338
vt 0.0076 0.8432
vt 0.3172 0.9023
vt 0.5176 0.3368
vt 0.2906 0.8345
vt 0.2906 0.8345
vt 0.2558 0.9085
vt 0.3180 0.2886
vt 0.3352 0.3092
vt 0.3180 0.3282
vt 0.3572 0.2883
vt 0.3367 0.3061
vt 0.3572 0.3278
vt 0.3399 0.3073
vt 0.3385 0.3104
vt 0.2743 0.3287
vt 0.2930 0.3066
vt 0.2915 0.3097
vt 0.3135 0.2888
vt 0.2743 0.2892
vt 0.2948 0.3109
vt 0.2963 0.3078
vt 0.3135 0.3284
vt 0.2719 0.3273
vt 0.2498 0.3086
vt 0.2529 0.3101
vt 0.2320 0.2881
vt 0.2324 0.3273
vt 0.2716 0.2881
vt 0.2510 0.3053
vt 0.2541 0.3068
vt 0.3579 0.2893
vt 0.3751 0.3098
vt 0.3579 0.3288
vt 0.3799 0.3079
vt 0.3766 0.3067
vt 0.3971 0.2889
vt 0.3784 0.3110
vt 0.3971 0.3284
vn 0.0000 -1.0000 0.0000
vn 0.0000 -0.0000 1.0000
vn -1.0000 -0.0000 -0.0000
vn 0.0000 -0.0000 -1.0000
vn 1.0000 0.0000 0.0000
vn -0.0000 1.0000 0.0000
vn -0.0000 0.6837 -0.7298
vn -0.0000 0.9109 -0.4126
vn -0.0000 0.9995 -0.0326
vn 0.0000 0.9359 0.3524
vn -0.0000 -0.7298 -0.6837
vn -0.0000 -0.4126 -0.9109
vn 0.0000 0.3524 -0.9359
vn 0.0000 -0.0326 -0.9995
vn 0.0000 -0.6837 0.7298
vn -0.0000 -0.9109 0.4126
vn -0.0000 -0.9995 0.0326
vn -0.0000 -0.9197 -0.3927
vn 0.0000 0.7588 0.6513
vn 0.0000 0.4126 0.9109
vn -0.0000 -0.3524 0.9359
vn 0.0000 0.0326 0.9995
vn -0.9969 0.0416 -0.0670
vn 0.9969 0.0416 -0.0670
vn -0.0000 -0.5314 0.8471
vn 0.0000 -0.5249 0.8511
vn -0.0040 -0.5282 0.8491
vn 0.0040 -0.5282 0.8491
vn 0.6905 -0.2151 -0.6905
vn -0.5328 -0.6574 -0.5328
vn -0.6905 -0.2151 -0.6905
vn 0.6905 -0.2151 0.6905
vn 0.5328 -0.6574 -0.5328
vn -0.6905 -0.2151 0.6905
vn 0.5328 -0.6574 0.5328
vn -0.5328 -0.6574 0.5328
usemtl UV-Material
s off
f 33/1/1 35/2/1 36/3/1
f 37/4/2 34/5/2 33/6/2
f 38/7/3 35/8/3 34/9/3
f 39/10/4 36/11/4 35/12/4
f 33/13/5 40/14/5 37/15/5
f 43/16/6 41/17/6 44/18/6
f 42/19/4 45/20/4 41/21/4
f 43/22/5 46/23/5 42/24/5
f 44/25/2 47/26/2 43/27/2
f 44/28/3 45/29/3 48/30/3
f 37/31/6 46/32/6 38/33/6
f 40/34/6 45/35/6 37/31/6
f 38/33/6 47/36/6 39/37/6
f 39/37/6 48/38/6 40/34/6
f 50/39/7 51/40/7 49/41/7
f 51/40/8 54/42/8 53/43/8
f 54/42/9 55/44/9 53/43/9
f 56/45/10 57/46/10 55/44/10
f 60/47/11 61/48/11 59/49/11
f 62/50/12 63/51/12 61/48/12
f 66/52/13 49/41/13 65/53/13
f 64/54/14 65/53/14 63/51/14
f 55/55/5 59/56/5 61/57/5
f 53/58/5 61/57/5 63/59/5
f 65/60/5 53/58/5 63/59/5
f 65/60/5 49/61/5 51/62/5
f 58/63/3 62/64/3 60/65/3
f 62/64/3 54/66/3 64/67/3
f 54/66/3 66/68/3 64/67/3
f 66/68/3 52/69/3 50/70/3
f 70/71/15 67/72/15 69/73/15
f 72/74/16 69/73/16 71/75/16
f 74/76/17 71/75/17 73/77/17
f 76/78/18 73/77/18 75/79/18
f 80/80/19 77/81/19 79/82/19
f 82/83/20 79/82/20 81/84/20
f 68/85/21 83/86/21 67/72/21
f 84/87/22 81/84/22 83/86/22
f 77/88/23 73/89/23 79/90/23
f 73/89/3 81/91/3 79/90/3
f 71/92/3 83/93/3 81/91/3
f 69/94/3 67/95/3 83/93/3
f 74/96/24 78/97/24 80/98/24
f 82/99/5 74/96/5 80/98/5
f 70/100/5 82/99/5 84/101/5
f 68/102/5 70/100/5 84/101/5
f 57/103/25 76/104/25 75/105/25
f 59/106/26 78/107/26 60/108/26
f 59/106/27 75/105/27 77/109/27
f 58/110/28 78/107/28 76/104/28
f 33/1/1 34/111/1 35/2/1
f 37/4/2 38/112/2 34/5/2
f 38/7/3 39/113/3 35/8/3
f 39/10/4 40/114/4 36/11/4
f 33/13/5 36/115/5 40/14/5
f 43/16/6 42/116/6 41/17/6
f 42/19/4 46/117/4 45/20/4
f 43/22/5 47/118/5 46/23/5
f 44/25/2 48/119/2 47/26/2
f 44/28/3 41/120/3 45/29/3
f 37/31/6 45/35/6 46/32/6
f 40/34/6 48/38/6 45/35/6
f 38/33/6 46/32/6 47/36/6
f 39/37/6 47/36/6 48/38/6
f 50/39/7 52/121/7 51/40/7
f 51/40/8 52/121/8 54/42/8
f 54/42/9 56/45/9 55/44/9
f 56/45/10 58/122/10 57/46/10
f 60/47/11 62/50/11 61/48/11
f 62/50/12 64/54/12 63/51/12
f 66/52/13 50/39/13 49/41/13
f 64/54/14 66/52/14 65/53/14
f 55/55/5 57/123/5 59/56/5
f 53/58/5 55/55/5 61/57/5
f 65/60/5 51/62/5 53/58/5
f 58/63/3 56/124/3 62/64/3
f 62/64/3 56/124/3 54/66/3
f 54/66/3 52/69/3 66/68/3
f 70/71/15 68/85/15 67/72/15
f 72/74/16 70/71/16 69/73/16
f 74/76/17 72/74/17 71/75/17
f 76/78/18 74/76/18 73/77/18
f 80/80/19 78/125/19 77/81/19
f 82/83/20 80/80/20 79/82/20
f 68/85/21 84/87/21 83/86/21
f 84/87/22 82/83/22 81/84/22
f 77/88/23 75/126/23 73/89/23
f 73/89/3 71/92/3 81/91/3
f 71/92/3 69/94/3 83/93/3
f 74/96/24 76/127/24 78/97/24
f 82/99/5 72/128/5 74/96/5
f 70/100/5 72/128/5 82/99/5
f 57/103/25 58/110/25 76/104/25
f 59/106/26 77/109/26 78/107/26
f 59/106/27 57/103/27 75/105/27
f 58/110/28 60/108/28 78/107/28
s 1
f 6/129/29 1/130/30 5/131/31
f 7/132/32 2/133/33 6/129/29
f 8/134/34 3/135/35 7/132/32
f 5/131/31 4/136/36 8/134/34
f 2/133/33 4/136/36 1/130/30
f 13/137/31 10/138/33 9/139/30
f 15/140/32 10/138/33 14/141/29
f 15/140/32 12/142/36 11/143/35
f 13/137/31 12/142/36 16/144/34
f 10/138/33 12/142/36 9/139/30
f 21/145/31 18/146/33 17/147/30
f 23/148/32 18/146/33 22/149/29
f 24/150/34 19/151/35 23/148/32
f 21/145/31 20/152/36 24/150/34
f 18/146/33 20/152/36 17/147/30
f 30/153/29 25/154/30 29/155/31
f 30/153/29 27/156/35 26/157/33
f 31/158/32 28/159/36 27/156/35
f 32/160/34 25/154/30 28/159/36
f 26/157/33 28/159/36 25/154/30
f 6/129/29 2/133/33 1/130/30
f 7/132/32 3/135/35 2/133/33
f 8/134/34 4/136/36 3/135/35
f 5/131/31 1/130/30 4/136/36
f 2/133/33 3/135/35 4/136/36
f 13/137/31 14/141/29 10/138/33
f 15/140/32 11/143/35 10/138/33
f 15/140/32 16/144/34 12/142/36
f 13/137/31 9/139/30 12/142/36
f 10/138/33 11/143/35 12/142/36
f 21/145/31 22/149/29 18/146/33
f 23/148/32 19/151/35 18/146/33
f 24/150/34 20/152/36 19/151/35
f 21/145/31 17/147/30 20/152/36
f 18/146/33 19/151/35 20/152/36
f 30/153/29 26/157/33 25/154/30
f 30/153/29 31/158/32 27/156/35
f 31/158/32 32/160/34 28/159/36
f 32/160/34 29/155/31 25/154/30
f 26/157/33 27/156/35 28/159/36
