# Blender v2.78 (sub 0) OBJ File: 'kitchen.blend'
# www.blender.org
mtllib door.mtl
o Door.001_Plane.011
v 25.272861 0.000000 5.285831
v 25.272861 20.714170 5.285831
v 25.272861 0.000000 4.499999
v 25.272861 21.500000 4.499999
v 23.727139 0.000000 5.285831
v 23.727139 20.714170 5.285831
v 23.727139 0.000000 4.499999
v 23.727139 21.500000 4.499999
v 25.134256 20.714170 5.285831
v 25.134256 0.000000 5.285831
v 23.865744 20.714170 5.285831
v 23.865744 0.000000 5.285831
v 25.134256 20.414171 5.585831
v 25.134256 0.000000 5.585831
v 23.865744 20.414171 5.585831
v 23.865744 0.000000 5.585831
v 15.251616 0.000006 16.438137
v 23.689211 0.000001 13.840725
v 15.251627 20.414175 16.438133
v 23.689222 20.414171 13.840721
v 23.865740 0.000001 14.414168
v 17.157772 10.377951 16.825985
v 17.157772 10.036228 16.825985
v 17.273319 10.315864 16.762220
v 17.273319 10.098315 16.762220
v 16.498667 10.061530 17.258720
v 16.491222 10.036229 17.234539
v 16.164623 10.061530 17.335079
v 16.188805 10.036229 17.327635
v 16.196251 10.061530 17.351816
v 16.491222 10.377952 17.234539
v 16.498667 10.352651 17.258720
v 16.188805 10.377952 17.327635
v 16.164623 10.352651 17.335079
v 16.196251 10.352651 17.351816
v 16.006901 10.352651 16.822718
v 16.031082 10.377952 16.815273
v 16.107439 10.352651 17.149315
v 16.131622 10.377952 17.141872
v 16.434038 10.352651 17.048777
v 16.409857 10.377952 17.056221
v 16.441483 10.377952 17.072958
v 16.458220 10.377952 17.041332
v 16.309317 10.377952 16.729622
v 16.333500 10.352651 16.722179
v 16.031082 10.036229 16.815273
v 16.006901 10.061530 16.822718
v 16.131622 10.036229 17.141872
v 16.107439 10.061530 17.149315
v 16.409857 10.036229 17.056221
v 16.434038 10.061530 17.048777
v 16.458220 10.036229 17.041332
v 16.441483 10.036229 17.072960
v 16.333500 10.061530 16.722179
v 16.309317 10.036229 16.729622
v 17.222401 10.061900 17.035927
v 17.214859 10.036228 17.011421
v 17.214859 10.377951 17.011421
v 17.222401 10.352279 17.035927
v 17.306889 10.098315 16.871275
v 17.295496 10.114538 16.916428
v 17.306889 10.315864 16.871275
v 17.295496 10.299641 16.916428
v 24.465744 0.000000 14.714169
v 24.465744 0.000000 5.585831
v 24.465744 20.414171 5.585831
v 25.134256 20.214170 5.785831
v 25.134256 0.000000 5.785831
v 24.465744 0.000000 5.785831
v 24.465744 20.214170 5.785831
v 25.134258 0.000000 14.714169
v 23.727140 21.500000 15.500002
v 23.865746 20.714170 14.714169
v 23.727140 0.000000 15.500002
v 25.134258 20.714170 14.714169
v 23.727140 20.714170 14.714169
v 23.727140 0.000000 14.714169
v 25.134258 20.414171 14.414169
v 25.272863 21.500000 15.500000
v 25.272863 0.000000 15.500000
v 25.272863 20.714170 14.714169
v 25.272863 0.000000 14.714169
v 23.865746 0.000000 14.714169
v 25.134258 0.000000 14.414168
v 23.865746 20.414171 14.414169
v 23.865746 0.000000 14.414169
v 24.465746 0.000000 14.414169
v 24.465746 20.414171 14.414169
v 25.134258 20.214170 14.214169
v 25.134258 0.000000 14.214169
v 24.465746 0.000000 14.214169
v 24.465746 20.214170 14.214169
v 15.619291 0.000006 16.952738
v 15.369301 0.000006 16.820433
v 15.369312 20.414175 16.820429
v 15.619303 20.214174 16.952734
v 23.806910 20.414169 14.223017
v 23.865751 20.214169 14.414165
vt 0.0666 0.0000
vt 0.0294 0.9703
vt 0.0294 0.0000
vt 0.1381 0.0000
vt 0.1738 0.9703
vt 0.1381 1.0000
vt 0.0666 1.0000
vt 0.0227 0.0000
vt 0.0093 0.9618
vt 0.0093 0.0000
vt 0.0227 0.9703
vt 0.1793 0.9703
vt 0.1738 0.0000
vt 0.1793 0.0000
vt 0.2086 0.9618
vt 0.1835 0.0000
vt 0.2086 0.0000
vt 0.1835 0.9618
vt 0.8834 0.0487
vt 0.4779 0.9725
vt 0.4779 0.0487
vt 0.9030 0.0487
vt 0.8834 0.9725
vt 0.4500 0.9635
vt 0.4500 0.0487
vt 0.8834 0.9908
vt 0.2898 0.0175
vt 0.2681 0.0182
vt 0.2874 0.0107
vt 0.2929 0.0111
vt 0.3038 0.0188
vt 0.2890 0.0277
vt 0.2680 0.0196
vt 0.2897 0.0192
vt 0.2911 0.0361
vt 0.2889 0.0296
vt 0.3034 0.0296
vt 0.2864 0.0131
vt 0.2739 0.0215
vt 0.2739 0.0131
vt 0.2667 0.0322
vt 0.2623 0.0294
vt 0.2680 0.0276
vt 0.3279 0.0190
vt 0.3131 0.0294
vt 0.3130 0.0190
vt 0.3047 0.0125
vt 0.2949 0.0002
vt 0.3066 0.0015
vt 0.2740 0.0228
vt 0.2864 0.0312
vt 0.2740 0.0312
vt 0.2873 0.0377
vt 0.2822 0.0454
vt 0.2850 0.0355
vt 0.2630 0.0397
vt 0.2621 0.0324
vt 0.3031 0.0201
vt 0.3045 0.0201
vt 0.2680 0.0263
vt 0.2639 0.0208
vt 0.2592 0.0204
vt 0.2625 0.0255
vt 0.2592 0.0255
vt 0.2671 0.0132
vt 0.2617 0.0161
vt 0.2615 0.0126
vt 0.3043 0.0283
vt 0.3028 0.0282
vt 0.2904 0.0098
vt 0.2902 0.0125
vt 0.2884 0.0342
vt 0.3129 0.0176
vt 0.3130 0.0308
vt 0.3277 0.0311
vt 0.3277 0.0296
vt 0.3278 0.0174
vt 0.2864 0.0228
vt 0.2864 0.0215
vt 0.2930 0.0000
vt 0.2639 0.0251
vt 0.2625 0.0204
vt 0.2630 0.0282
vt 0.2624 0.0175
vt 0.2427 0.9551
vt 0.2163 0.0000
vt 0.2427 0.0000
vt 0.2163 0.9551
vt 0.0000 0.9551
vt 0.0000 0.0000
vt 0.8165 0.0000
vt 0.7914 0.9618
vt 0.7914 0.0000
vt 0.8619 1.0000
vt 0.9334 0.0000
vt 0.9334 1.0000
vt 0.8619 0.0000
vt 0.8262 0.9703
vt 0.8262 0.0000
vt 0.7837 0.0000
vt 0.7573 0.9551
vt 0.7573 0.0000
vt 0.9706 0.9703
vt 0.1905 0.7948
vt 0.7599 0.7810
vt 0.7790 0.7948
vt 0.7837 0.9551
vt 0.7450 1.0000
vt 0.2245 0.9778
vt 0.7450 0.9778
vt 0.7599 0.9682
vt 0.2095 0.9682
vt 0.8207 0.9703
vt 0.8207 0.0000
vt 0.9773 0.0000
vt 0.9773 0.9703
vt 0.9907 0.9618
vt 0.8165 0.9618
vt 0.8282 0.8346
vt 0.1905 0.8014
vt 0.7790 0.8014
vt 0.1905 0.9174
vt 0.8282 0.8842
vt 0.7790 0.9155
vt 0.1412 0.8346
vt 0.1412 0.8842
vt 0.7790 0.9226
vt 0.2095 0.9362
vt 0.1905 0.9226
vt 0.7599 0.9362
vt 0.2245 0.7707
vt 0.7450 0.7707
vt 0.9907 0.0000
vt 1.0000 0.9551
vt 0.0528 0.9635
vt 0.4500 0.9725
vt 0.0436 0.9725
vt 0.0436 0.0487
vt 0.0528 0.0487
vt 0.9030 0.9725
vt 0.4593 0.9725
vt 0.4779 0.9908
vt 0.3034 0.0364
vt 0.2851 0.0442
vt 0.2599 0.0373
vt 0.2911 0.0110
vt 0.9706 0.0000
vt 0.2095 0.7810
vt 0.2245 1.0000
vt 1.0000 0.0000
vn 1.0000 0.0000 0.0000
vn -1.0000 0.0000 0.0000
vn 0.0000 0.0000 -1.0000
vn 0.0000 0.0000 1.0000
vn -0.2942 0.0000 -0.9557
vn -0.9557 0.0000 0.2942
vn 0.9557 -0.0000 -0.2942
vn 0.0000 1.0000 0.0000
vn 0.2942 0.0000 0.9557
vn 0.0000 -1.0000 0.0000
vn 0.4140 -0.9013 -0.1274
vn -0.2943 0.0000 -0.9557
vn -0.4832 0.0000 -0.8755
vn 0.8531 0.0000 0.5218
vn 0.4140 0.9013 -0.1274
vn -0.3819 -0.5773 0.7217
vn -0.3819 0.5773 0.7217
vn -0.7216 0.5774 -0.3819
vn 0.3820 -0.5773 -0.7217
vn -0.6758 0.7071 0.2080
vn -0.6758 -0.7071 0.2080
vn 0.2080 0.7071 0.6758
vn -0.4678 0.0000 0.8838
vn 0.2080 -0.7071 0.6758
vn -0.6759 -0.7070 0.2081
vn 0.6758 -0.7072 -0.2080
vn 0.6758 0.7071 -0.2080
vn 0.2085 -0.7067 0.6761
vn 0.2084 0.7071 0.6757
vn 0.9696 0.0000 0.2447
vn 0.8328 -0.4197 0.3609
vn 0.8173 0.5051 0.2775
vn -0.4678 0.0000 0.8839
vn -0.2941 0.0000 -0.9558
vn -0.4831 0.0000 -0.8755
vn 0.3820 0.5773 -0.7217
vn -0.7216 -0.5774 -0.3819
vn -0.4677 0.0000 0.8839
vn -0.6759 0.7070 0.2081
vn 0.6758 -0.7071 -0.2081
vn 0.6758 0.7072 -0.2080
vn 0.2084 -0.7071 0.6757
vn 0.2085 0.7067 0.6761
vn 0.9696 0.0000 0.2446
vn 0.8173 -0.5051 0.2775
vn 0.8328 0.4197 0.3609
usemtl Door
s off
f 3/1/1 2/2/1 1/3/1
f 7/4/2 6/5/2 8/6/2
f 3/1/3 8/6/3 4/7/3
f 10/8/1 13/9/1 14/10/1
f 10/8/4 2/2/4 9/11/4
f 11/12/4 5/13/4 12/14/4
f 66/15/4 16/16/4 65/17/4
f 12/14/2 15/18/2 11/12/2
f 17/19/5 20/20/5 18/21/5
f 94/22/6 19/23/6 17/19/6
f 98/24/7 21/25/7 18/21/7
f 95/26/8 20/20/8 19/23/8
f 31/27/8 58/28/8 43/29/8
f 41/30/8 33/31/8 31/27/8
f 26/32/9 59/33/9 32/34/9
f 50/35/10 27/36/10 29/37/10
f 40/38/7 54/39/7 45/40/7
f 23/41/11 60/42/11 57/43/11
f 36/44/6 49/45/6 38/46/6
f 39/47/8 44/48/8 37/49/8
f 55/50/10 48/51/10 46/52/10
f 51/53/12 43/54/12 52/55/12
f 22/56/13 25/57/13 23/41/13
f 35/58/9 26/32/9 32/34/9
f 49/45/6 34/59/6 38/46/6
f 56/60/14 63/61/14 59/33/14
f 24/62/7 60/63/7 25/64/7
f 22/65/15 62/66/15 24/67/15
f 28/68/16 29/37/16 30/69/16
f 33/31/17 34/59/17 35/58/17
f 40/70/18 42/71/18 43/29/18
f 51/53/19 53/72/19 50/35/19
f 39/73/20 34/59/20 33/31/20
f 28/68/21 48/74/21 29/37/21
f 31/27/22 35/58/22 32/34/22
f 28/68/23 35/58/23 34/59/23
f 27/36/24 30/69/24 29/37/24
f 46/75/25 49/45/25 47/76/25
f 37/77/20 38/46/20 39/73/20
f 50/78/26 54/39/26 51/79/26
f 41/30/27 45/80/27 44/48/27
f 56/60/28 27/36/28 57/43/28
f 59/33/29 31/27/29 32/34/29
f 61/81/30 62/82/30 63/61/30
f 61/83/31 57/43/31 60/42/31
f 63/84/32 58/28/32 59/33/32
f 52/55/10 23/41/10 57/43/10
f 67/85/4 69/86/4 68/87/4
f 65/17/2 70/88/2 66/15/2
f 14/10/1 67/89/1 68/90/1
f 86/91/3 88/92/3 87/93/3
f 72/94/4 80/95/4 79/96/4
f 74/97/2 76/98/2 77/99/2
f 91/100/3 89/101/3 90/102/3
f 80/95/1 81/103/1 79/96/1
f 75/104/1 13/105/1 9/106/1
f 92/107/2 87/93/2 88/92/2
f 67/108/10 92/109/10 70/110/10
f 66/111/2 92/109/2 88/112/2
f 77/99/3 73/113/3 83/114/3
f 81/103/3 71/115/3 75/116/3
f 71/115/1 78/117/1 75/116/1
f 85/118/2 83/114/2 73/113/2
f 4/119/1 81/120/1 2/121/1
f 76/122/2 8/123/2 6/124/2
f 79/125/8 8/123/8 72/126/8
f 11/127/2 85/128/2 73/129/2
f 9/106/10 81/120/10 75/104/10
f 73/129/10 6/124/10 11/127/10
f 88/112/10 15/130/10 66/111/10
f 13/105/1 89/131/1 67/132/1
f 84/133/1 89/134/1 78/117/1
f 96/135/22 97/136/22 95/137/22
f 96/135/33 94/138/33 93/139/33
f 98/24/9 93/139/9 21/25/9
f 3/1/1 4/7/1 2/2/1
f 7/4/2 5/13/2 6/5/2
f 3/1/3 7/4/3 8/6/3
f 10/8/1 9/11/1 13/9/1
f 10/8/4 1/3/4 2/2/4
f 11/12/4 6/5/4 5/13/4
f 66/15/4 15/18/4 16/16/4
f 12/14/2 16/16/2 15/18/2
f 17/19/5 19/23/5 20/20/5
f 94/22/6 95/140/6 19/23/6
f 18/21/7 20/20/7 98/24/7
f 97/141/7 98/24/7 20/20/7
f 95/26/8 97/142/8 20/20/8
f 22/65/8 43/29/8 58/28/8
f 42/71/8 31/27/8 43/29/8
f 31/27/8 42/71/8 41/30/8
f 41/30/8 39/47/8 33/31/8
f 26/32/9 56/60/9 59/33/9
f 29/37/10 48/143/10 50/35/10
f 50/35/10 53/72/10 27/36/10
f 40/38/7 51/79/7 54/39/7
f 23/41/11 25/57/11 60/42/11
f 36/44/6 47/76/6 49/45/6
f 39/47/8 41/30/8 44/48/8
f 55/50/10 50/78/10 48/51/10
f 23/41/5 52/55/5 43/54/5
f 51/53/34 40/144/34 43/54/34
f 43/54/5 22/56/5 23/41/5
f 22/56/35 24/145/35 25/57/35
f 35/58/9 30/69/9 26/32/9
f 49/45/6 28/68/6 34/59/6
f 56/60/14 61/81/14 63/61/14
f 24/62/7 62/82/7 60/63/7
f 22/65/15 58/28/15 62/66/15
f 40/70/36 41/30/36 42/71/36
f 51/53/37 52/55/37 53/72/37
f 39/73/20 38/46/20 34/59/20
f 28/68/21 49/45/21 48/74/21
f 31/27/22 33/31/22 35/58/22
f 28/68/38 30/69/38 35/58/38
f 27/36/24 26/32/24 30/69/24
f 46/75/21 48/74/21 49/45/21
f 37/77/39 36/44/39 38/46/39
f 50/78/40 55/50/40 54/39/40
f 41/30/41 40/146/41 45/80/41
f 56/60/42 26/32/42 27/36/42
f 59/33/43 58/28/43 31/27/43
f 61/81/44 60/63/44 62/82/44
f 61/83/45 56/60/45 57/43/45
f 63/84/46 62/66/46 58/28/46
f 57/43/10 27/36/10 52/55/10
f 53/72/10 52/55/10 27/36/10
f 67/85/4 70/88/4 69/86/4
f 65/17/2 69/86/2 70/88/2
f 14/10/1 13/9/1 67/89/1
f 86/91/3 85/118/3 88/92/3
f 72/94/4 74/97/4 80/95/4
f 74/97/2 72/94/2 76/98/2
f 91/100/3 92/107/3 89/101/3
f 80/95/1 82/147/1 81/103/1
f 75/104/1 78/148/1 13/105/1
f 92/107/2 91/100/2 87/93/2
f 67/108/10 89/149/10 92/109/10
f 66/111/2 70/110/2 92/109/2
f 77/99/3 76/98/3 73/113/3
f 81/103/3 82/147/3 71/115/3
f 71/115/1 84/133/1 78/117/1
f 85/118/2 86/91/2 83/114/2
f 4/119/1 79/125/1 81/120/1
f 76/122/2 72/126/2 8/123/2
f 79/125/8 4/119/8 8/123/8
f 11/127/2 15/130/2 85/128/2
f 9/106/10 2/121/10 81/120/10
f 73/129/10 76/122/10 6/124/10
f 88/112/10 85/128/10 15/130/10
f 13/105/1 78/148/1 89/131/1
f 84/133/1 90/150/1 89/134/1
f 96/135/22 98/24/22 97/136/22
f 96/135/33 95/137/33 94/138/33
f 98/24/9 96/135/9 93/139/9
