# Blender v2.78 (sub 0) OBJ File: 'file_cabinet_metal.blend'
# www.blender.org
mtllib folder.mtl
o folder_w_paper
v -0.142541 -0.005000 -0.240000
v -0.147541 -0.005000 -0.235000
v -0.052541 -0.005000 -0.240000
v -0.047541 -0.005000 -0.235000
v -0.047541 -0.005000 -0.225000
v -0.042541 -0.005000 -0.220000
v 0.147459 -0.005000 -0.220000
v 0.152459 -0.005000 -0.215000
v 0.152459 0.000000 0.000000
v -0.147541 0.000000 0.000000
v -0.147541 -0.005000 -0.015000
v 0.152459 -0.005000 -0.015000
v -0.147541 -0.005000 -0.225000
v -0.147541 -0.005198 -0.225028
v 0.152459 -0.005198 -0.015028
v -0.147541 -0.005198 -0.015028
v -0.147541 -0.000198 -0.000028
v 0.152459 -0.000198 -0.000028
v 0.152459 -0.005198 -0.215028
v 0.147459 -0.005198 -0.220028
v -0.042541 -0.005198 -0.220028
v -0.047541 -0.005198 -0.225028
v -0.047541 -0.005198 -0.235028
v -0.052541 -0.005198 -0.240028
v -0.147541 -0.005198 -0.235028
v -0.142541 -0.005198 -0.240028
v -0.142541 0.005099 -0.189986
v -0.147541 0.005099 -0.184986
v -0.052541 0.005099 -0.189986
v -0.047541 0.005099 -0.194986
v -0.047541 0.005099 -0.204986
v -0.042541 0.005099 -0.209986
v 0.147459 0.005099 -0.209986
v 0.152459 0.005099 -0.204986
v 0.152459 0.000099 0.000014
v -0.147541 0.000099 0.000014
v -0.147541 0.005099 -0.014986
v 0.152459 0.005099 -0.014986
v 0.152459 0.005000 -0.015000
v -0.147541 0.005000 -0.015000
v -0.147541 0.000000 0.000000
v 0.152459 0.000000 0.000000
v 0.152459 0.005000 -0.205000
v 0.147459 0.005000 -0.210000
v -0.042541 0.005000 -0.210000
v -0.047541 0.005000 -0.205000
v -0.047541 0.005000 -0.195000
v -0.052541 0.005000 -0.190000
v -0.147541 0.005000 -0.185000
v -0.142541 0.005000 -0.190000
v -0.140000 0.002086 -0.217241
v 0.140000 0.002086 -0.217241
v 0.140000 0.002086 -0.017241
v -0.140000 0.002086 -0.017242
v -0.140021 0.002034 -0.017728
v 0.139979 0.002034 -0.017728
v 0.139980 0.002034 -0.217728
v -0.140020 0.002034 -0.217728
v -0.140000 -0.000000 -0.217242
v 0.140000 -0.000000 -0.217242
v 0.140000 -0.000000 -0.017241
v -0.140000 -0.000000 -0.017242
v -0.140021 -0.000052 -0.017728
v 0.139979 -0.000052 -0.017728
v 0.139980 -0.000052 -0.217728
v -0.140020 -0.000052 -0.217728
vt 0.8635 0.8868
vt 0.9931 0.8803
vt 0.8635 0.8803
vt 0.9045 0.8046
vt 0.9067 0.8025
vt 0.8635 0.8068
vt 0.8656 0.8046
vt 0.9067 0.7982
vt 0.9910 0.7960
vt 0.9089 0.7960
vt 0.9931 0.7982
vt 0.9067 0.8025
vt 0.9931 0.7982
vt 0.9931 0.8803
vt 0.9910 0.7960
vt 0.9067 0.7982
vt 0.9089 0.7960
vt 0.9045 0.8046
vt 0.8635 0.8068
vt 0.8656 0.8046
vt 0.8635 0.8803
vt 0.8635 0.8868
vt 0.9927 0.7911
vt 0.8857 0.6413
vt 0.9927 0.6413
vt 0.8857 0.6413
vt 0.9927 0.4914
vt 0.9927 0.6413
vt 0.9927 0.4816
vt 0.8857 0.3318
vt 0.9927 0.3318
vt 0.8857 0.3318
vt 0.9927 0.1819
vt 0.9927 0.3318
vt 0.9931 0.8868
vt 0.9931 0.8868
vt 0.8857 0.7911
vt 0.8857 0.4914
vt 0.8857 0.4816
vt 0.8857 0.1819
vt 0.9132 0.9971
vt 0.9954 0.9928
vt 0.9910 0.9971
vt 0.9910 0.9819
vt 0.9932 0.8933
vt 0.9932 0.9797
vt 0.9089 0.9819
vt 0.8635 0.8868
vt 0.8635 0.8933
vt 0.9089 0.9928
vt 0.9954 0.9842
vt 0.8635 0.9840
vt 0.9089 0.9819
vt 0.8635 0.9840
vt 0.9067 0.9840
vt 0.8635 0.9884
vt 0.9067 0.9884
vt 0.9932 0.8933
vt 0.8635 0.8868
vt 0.8635 0.8933
vt 0.9910 0.9819
vt 0.9932 0.9797
vt 0.8656 0.9905
vt 0.9932 0.8868
vt 0.9089 0.9842
vt 0.9067 0.9840
vt 0.9932 0.8868
vt 0.9045 0.9905
vn 0.0000 0.9487 0.3162
vn -0.0000 1.0000 0.0000
vn -0.0000 -1.0000 0.0000
vn 0.0000 -0.9487 -0.3162
vn 0.0000 0.9871 -0.1602
vn 0.0000 0.9487 -0.3162
vn 0.0000 -0.9871 0.1602
vn 0.0000 -0.9487 0.3162
usemtl file_cabinet_metal.001
s off
f 36/1/1 38/2/1 37/3/1
f 29/4/2 38/2/2 30/5/2
f 28/6/2 29/4/2 27/7/2
f 31/8/2 33/9/2 32/10/2
f 30/5/2 34/11/2 31/8/2
f 47/12/3 43/13/3 39/14/3
f 44/15/3 46/16/3 45/17/3
f 48/18/3 49/19/3 50/20/3
f 48/18/3 39/14/3 40/21/3
f 39/14/4 41/22/4 40/21/4
f 51/23/2 53/24/2 52/25/2
f 58/26/3 56/27/3 55/28/3
f 59/29/2 61/30/2 60/31/2
f 66/32/3 64/33/3 63/34/3
f 36/1/1 35/35/1 38/2/1
f 29/4/2 37/3/2 38/2/2
f 28/6/2 37/3/2 29/4/2
f 31/8/2 34/11/2 33/9/2
f 30/5/2 38/2/2 34/11/2
f 47/12/3 46/16/3 43/13/3
f 44/15/3 43/13/3 46/16/3
f 48/18/3 40/21/3 49/19/3
f 48/18/3 47/12/3 39/14/3
f 39/14/4 42/36/4 41/22/4
f 51/23/2 54/37/2 53/24/2
f 58/26/3 57/38/3 56/27/3
f 59/29/2 62/39/2 61/30/2
f 66/32/3 65/40/3 64/33/3
s 1
f 1/41/2 4/42/2 3/43/2
f 7/44/2 12/45/5 8/46/2
f 6/47/2 12/45/5 7/44/2
f 10/48/6 12/45/5 11/49/5
f 2/50/2 5/51/2 4/42/2
f 6/47/2 13/52/2 11/49/5
f 21/53/3 14/54/3 22/55/3
f 22/55/3 25/56/3 23/57/3
f 15/58/7 17/59/8 16/60/7
f 21/53/3 15/58/7 16/60/7
f 20/61/3 19/62/3 15/58/7
f 26/63/3 23/57/3 25/56/3
f 1/41/2 2/50/2 4/42/2
f 6/47/2 11/49/5 12/45/5
f 10/48/6 9/64/6 12/45/5
f 2/50/2 13/65/2 5/51/2
f 6/47/2 5/66/2 13/52/2
f 21/53/3 16/60/7 14/54/3
f 22/55/3 14/54/3 25/56/3
f 15/58/7 18/67/8 17/59/8
f 21/53/3 20/61/3 15/58/7
f 26/63/3 24/68/3 23/57/3
