# Blender v2.78 (sub 0) OBJ File: ''
# www.blender.org
mtllib gold.mtl
o Gold-02_Untitled
v -0.019482 0.030000 0.081558
v 0.070171 0.034144 -0.039025
v -0.076936 0.030000 0.033349
v 0.019482 0.033921 -0.081558
v -0.015603 0.060163 0.065320
v -0.057892 0.067500 0.025094
v 0.015608 0.060285 -0.065134
v -0.028727 0.030000 -0.024105
v 0.028727 0.032096 0.024105
v 0.057892 0.067164 -0.025094
v -0.021616 0.067500 -0.018138
v 0.072652 0.041639 -0.031492
v 0.071267 0.033692 -0.026593
v -0.009270 0.067500 0.054946
v -0.021084 0.067500 0.055980
vt 0.9940 0.1384
vt 0.9917 0.4982
vt 0.6333 0.4944
vt 0.6342 0.1353
vt 0.4690 0.7727
vt 0.2000 0.5040
vt 0.1970 0.2357
vt 0.4616 0.2729
vt 0.4268 0.2365
vt 0.4842 0.2086
vt 0.4929 0.9153
vt 0.4578 0.9539
vt 0.1878 0.7906
vt 0.0167 0.5126
vt 0.0609 0.8718
vt 0.1631 0.0351
vt 0.9862 0.8596
vt 0.6345 0.8082
vt 0.0088 0.1513
vt 0.6644 0.8554
vt 0.6056 0.8374
vt 0.1417 0.9331
vt 0.5234 0.0476
vn -0.9068 -0.4013 0.1290
vn -0.5794 -0.6333 -0.5131
vn 0.6233 -0.6035 0.4971
vn 0.0337 -0.4057 0.9134
vn 0.6337 0.7736 0.0078
vn -0.4556 0.7911 -0.4080
vn -0.6636 0.7480 -0.0085
vn 0.4092 0.7877 0.4604
vn -0.2603 0.8472 0.4631
vn 0.1169 0.5327 0.8382
vn 0.9467 0.3156 -0.0641
vn 0.6892 -0.4792 -0.5435
vn -0.1357 0.7132 -0.6876
vn -0.0233 -0.3581 -0.9334
vn 0.7332 -0.5920 0.3345
usemtl 04_-_Default
s 1
f 3/1/1 8/2/2 9/3/3
f 9/3/3 1/4/4 3/1/1
f 10/5/5 11/6/6 6/7/7
f 14/8/8 10/5/5 6/7/7
f 15/9/9 14/8/8 6/7/7
f 1/4/4 9/3/3 5/10/10
f 10/5/5 12/11/11 2/12/12
f 2/12/12 7/13/13 10/5/5
f 8/14/2 11/6/6 7/13/13
f 7/13/13 4/15/14 8/14/2
f 5/10/10 15/9/9 6/7/7
f 6/7/7 3/16/1 5/10/10
f 8/2/2 4/17/14 9/3/3
f 10/5/5 7/13/13 11/6/6
f 9/3/3 13/18/15 10/5/5
f 8/14/2 3/19/1 6/7/7
f 6/7/7 11/6/6 8/14/2
f 2/20/12 12/21/11 13/18/15
f 2/12/12 4/22/14 7/13/13
f 13/18/15 12/21/11 10/5/5
f 2/20/12 13/18/15 9/3/3
f 9/3/3 4/17/14 2/20/12
f 5/10/10 14/8/8 15/9/9
f 10/5/5 14/8/8 5/10/10
f 5/10/10 9/3/3 10/5/5
f 3/16/1 1/23/4 5/10/10
