# This file uses centimeters as units for non-parametric coordinates.

mtllib rock_self.mtl
g rocks_default1
v -2.028933 1.410003 -6.249931
v -1.446075 0.823672 -5.810174
v -1.759933 1.225277 -5.958021
v -1.594767 0.819941 -5.440715
v -1.434472 0.550132 -5.867759
v -1.551325 0.354861 -6.009872
v -1.988633 0.124730 -5.988064
v -1.872624 0.922627 -5.251671
v -1.608002 0.510796 -5.455745
v -1.820204 0.269797 -5.509431
v -2.126011 0.154502 -5.609252
v -1.875867 0.556271 -5.172296
v -2.128775 1.044199 -5.285198
v -2.056921 0.719159 -5.083316
v -2.260076 0.393000 -5.153321
v -2.507755 0.569175 -5.086643
v -2.455790 1.073852 -5.321471
v -2.522842 0.846830 -5.103632
v -2.765413 0.298950 -5.448972
v -2.930182 0.659855 -5.309278
v -2.874067 0.491486 -5.326543
v -2.894943 1.094390 -5.560733
v -2.825479 1.223876 -5.759254
v -3.129389 0.930835 -5.725526
v -3.036205 1.141655 -5.999940
v -3.298540 0.544588 -6.005693
v -3.198196 0.373970 -5.998776
v -2.556832 0.133502 -5.725472
v -2.092654 1.392057 -6.013654
v -2.529927 1.300861 -5.977711
v -3.212529 0.939492 -6.098468
v -3.222935 0.289913 -6.308155
v -3.262611 0.426723 -6.516992
v -2.418289 0.099613 -5.948823
v -3.061977 0.974230 -6.505447
v -3.165436 0.764904 -6.634280
v -3.059589 0.268161 -6.527716
v -2.776045 0.180354 -6.257204
v -3.007191 0.502440 -6.806809
v -2.435162 1.190218 -6.691077
v -2.417136 0.839893 -6.982984
v -2.733712 0.370074 -6.850770
v -2.247061 0.731698 -7.035658
v -2.143641 0.977781 -6.944838
v -2.180165 0.268306 -6.695583
v -2.326535 1.384384 -6.291309
v -2.046815 1.327676 -6.522731
v -1.952597 0.763127 -6.936811
v -1.997253 0.567575 -6.918435
v -1.803916 1.173049 -6.576689
v -1.549196 0.540163 -6.415922
v -1.781193 0.300819 -6.463252
v -2.182000 0.134525 -6.380616
v -1.598128 1.111161 -6.209292
v -1.518470 0.819068 -6.420278
vn 0.934680 0.336882 -0.113505
vn 0.934680 0.336882 -0.113505
vn 0.934680 0.336882 -0.113505
vn 0.990744 0.066897 -0.118116
vn 0.990744 0.066897 -0.118116
vn 0.990744 0.066897 -0.118116
vn 0.740637 0.646386 0.183415
vn 0.740637 0.646386 0.183415
vn 0.740637 0.646386 0.183415
vn 0.700044 0.653287 0.288365
vn 0.700044 0.653287 0.288365
vn 0.700044 0.653287 0.288365
vn 0.351065 0.839088 0.415553
vn 0.351065 0.839088 0.415553
vn 0.351065 0.839088 0.415553
vn 0.595756 0.165000 0.786034
vn 0.595756 0.165000 0.786034
vn 0.595756 0.165000 0.786034
vn 0.720102 -0.064398 0.690874
vn 0.720102 -0.064398 0.690874
vn 0.720102 -0.064398 0.690874
vn 0.326252 -0.693078 0.642809
vn 0.326252 -0.693078 0.642809
vn 0.326252 -0.693078 0.642809
vn 0.133048 0.514004 0.847407
vn 0.133048 0.514004 0.847407
vn 0.133048 0.514004 0.847407
vn 0.119599 0.566400 0.815406
vn 0.119599 0.566400 0.815406
vn 0.119599 0.566400 0.815406
vn 0.178508 -0.311494 0.933331
vn 0.178508 -0.311494 0.933331
vn 0.178508 -0.311494 0.933331
vn -0.027185 0.059598 0.997852
vn -0.027185 0.059598 0.997852
vn -0.027185 0.059598 0.997852
vn -0.076367 -0.892548 0.444439
vn -0.076367 -0.892548 0.444439
vn -0.076367 -0.892548 0.444439
vn -0.283361 -0.661229 0.694610
vn -0.283361 -0.661229 0.694610
vn -0.283361 -0.661229 0.694610
vn -0.165336 0.926132 0.339033
vn -0.165336 0.926132 0.339033
vn -0.165336 0.926132 0.339033
vn -0.461167 0.029199 0.886833
vn -0.461167 0.029199 0.886833
vn -0.461167 0.029199 0.886833
vn -0.492888 -0.249714 0.833489
vn -0.492888 -0.249714 0.833489
vn -0.492888 -0.249714 0.833489
vn -0.004160 0.944895 0.327347
vn -0.004160 0.944895 0.327347
vn -0.004160 0.944895 0.327347
vn -0.220416 0.850491 0.477579
vn -0.220416 0.850491 0.477579
vn -0.220416 0.850491 0.477579
vn -0.697315 0.400499 0.594435
vn -0.697315 0.400499 0.594435
vn -0.697315 0.400499 0.594435
vn -0.886338 0.054700 0.459797
vn -0.886338 0.054700 0.459797
vn -0.886338 0.054700 0.459797
vn -0.605600 0.746696 0.275125
vn -0.605600 0.746696 0.275125
vn -0.605600 0.746696 0.275125
vn -0.377739 -0.922920 0.074378
vn -0.377739 -0.922920 0.074378
vn -0.377739 -0.922920 0.074378
vn -0.783755 0.591779 0.188486
vn -0.783755 0.591779 0.188486
vn -0.783755 0.591779 0.188486
vn -0.296738 0.952696 -0.065703
vn -0.296738 0.952696 -0.065703
vn -0.296738 0.952696 -0.065703
vn -0.258326 -0.926838 0.272467
vn -0.258326 -0.926838 0.272467
vn -0.258326 -0.926838 0.272467
vn -0.191702 0.972176 0.134622
vn -0.191702 0.972176 0.134622
vn -0.191702 0.972176 0.134622
vn -0.976122 0.186393 -0.111550
vn -0.976122 0.186393 -0.111550
vn -0.976122 0.186393 -0.111550
vn -0.847925 -0.490492 0.201099
vn -0.847925 -0.490492 0.201099
vn -0.847925 -0.490492 0.201099
vn -0.275517 0.916660 -0.289526
vn -0.275517 0.916660 -0.289526
vn -0.275517 0.916660 -0.289526
vn -0.104426 -0.985082 -0.136782
vn -0.104426 -0.985082 -0.136782
vn -0.104426 -0.985082 -0.136782
vn -0.748198 -0.015101 -0.663304
vn -0.748198 -0.015101 -0.663304
vn -0.748198 -0.015101 -0.663304
vn -0.431437 -0.704006 -0.564126
vn -0.431437 -0.704006 -0.564126
vn -0.431437 -0.704006 -0.564126
vn -0.391045 0.865173 -0.313943
vn -0.391045 0.865173 -0.313943
vn -0.391045 0.865173 -0.313943
vn -0.078624 -0.925213 -0.371214
vn -0.078624 -0.925213 -0.371214
vn -0.078624 -0.925213 -0.371214
vn -0.290720 0.008800 -0.956768
vn -0.290720 0.008800 -0.956768
vn -0.290720 0.008800 -0.956768
vn 0.060453 -0.517622 -0.853471
vn 0.060453 -0.517622 -0.853471
vn 0.060453 -0.517622 -0.853471
vn 0.329550 -0.162611 -0.930029
vn 0.329550 -0.162611 -0.930029
vn 0.329550 -0.162611 -0.930029
vn 0.288882 0.222284 -0.931202
vn 0.288882 0.222284 -0.931202
vn 0.288882 0.222284 -0.931202
vn 0.301008 0.699096 -0.648582
vn 0.301008 0.699096 -0.648582
vn 0.301008 0.699096 -0.648582
vn 0.404434 -0.692306 -0.597617
vn 0.404434 -0.692306 -0.597617
vn 0.404434 -0.692306 -0.597617
vn 0.053575 -0.997245 -0.051301
vn 0.053575 -0.997245 -0.051301
vn 0.053575 -0.997245 -0.051301
vn 0.714964 0.296790 -0.633043
vn 0.714964 0.296790 -0.633043
vn 0.714964 0.296790 -0.633043
vn 0.571837 0.799076 -0.185688
vn 0.571837 0.799076 -0.185688
vn 0.571837 0.799076 -0.185688
vn 0.796859 0.481202 -0.365322
vn 0.796859 0.481202 -0.365322
vn 0.796859 0.481202 -0.365322
vn 0.342197 -0.919895 -0.191559
vn 0.342197 -0.919895 -0.191559
vn 0.342197 -0.919895 -0.191559
vn 0.973215 -0.110398 -0.201653
vn 0.973215 -0.110398 -0.201653
vn 0.973215 -0.110398 -0.201653
vn 0.896302 -0.405183 -0.180192
vn 0.896302 -0.405183 -0.180192
vn 0.896302 -0.405183 -0.180192
vn 0.457007 -0.880389 -0.126730
vn 0.457007 -0.880389 -0.126730
vn 0.457007 -0.880389 -0.126730
vn 0.416580 0.891104 0.179988
vn 0.416580 0.891104 0.179988
vn 0.416580 0.891104 0.179988
vn 0.467270 -0.878235 0.101794
vn 0.467270 -0.878235 0.101794
vn 0.467270 -0.878235 0.101794
vn 0.294828 -0.938311 0.180691
vn 0.294828 -0.938311 0.180691
vn 0.294828 -0.938311 0.180691
vn 0.924327 -0.049700 0.378351
vn 0.924327 -0.049700 0.378351
vn 0.924327 -0.049700 0.378351
vn 0.924327 -0.049700 0.378351
vn 0.924327 -0.049700 0.378351
vn 0.924327 -0.049700 0.378351
vn 0.712742 -0.652787 0.256648
vn 0.712742 -0.652787 0.256648
vn 0.712742 -0.652787 0.256648
vn 0.712742 -0.652787 0.256648
vn 0.712742 -0.652787 0.256648
vn 0.712742 -0.652787 0.256648
vn 0.042004 -0.991378 0.124120
vn 0.042004 -0.991378 0.124120
vn 0.042004 -0.991378 0.124120
vn 0.042004 -0.991378 0.124120
vn 0.042004 -0.991378 0.124120
vn 0.042004 -0.991378 0.124120
vn 0.545406 0.735416 0.402114
vn 0.545406 0.735416 0.402114
vn 0.545406 0.735416 0.402114
vn 0.530780 -0.600593 0.597964
vn 0.530780 -0.600593 0.597964
vn 0.530780 -0.600593 0.597964
vn 0.344164 0.840518 0.418427
vn 0.344164 0.840518 0.418427
vn 0.344164 0.840518 0.418427
vn 0.554497 0.171510 0.814320
vn 0.554497 0.171510 0.814320
vn 0.554497 0.171510 0.814320
vn -0.796759 -0.382103 0.468159
vn -0.796759 -0.382103 0.468159
vn -0.796759 -0.382103 0.468159
vn -0.796759 -0.382103 0.468159
vn -0.796759 -0.382103 0.468159
vn -0.796759 -0.382103 0.468159
vn 0.160739 -0.854376 0.494170
vn 0.160739 -0.854376 0.494170
vn 0.160739 -0.854376 0.494170
vn 0.033826 0.901206 0.432070
vn 0.033826 0.901206 0.432070
vn 0.033826 0.901206 0.432070
vn 0.077871 -0.255299 0.963721
vn 0.077871 -0.255299 0.963721
vn 0.077871 -0.255299 0.963721
vn -0.016715 0.694834 0.718976
vn -0.016715 0.694834 0.718976
vn -0.016715 0.694834 0.718976
vn -0.100717 -0.885398 0.453791
vn -0.100717 -0.885398 0.453791
vn -0.100717 -0.885398 0.453791
vn -0.326643 -0.631498 0.703217
vn -0.326643 -0.631498 0.703217
vn -0.326643 -0.631498 0.703217
vn -0.314093 0.703979 0.636993
vn -0.314093 0.703979 0.636993
vn -0.314093 0.703979 0.636993
vn -0.558290 0.449002 0.697646
vn -0.558290 0.449002 0.697646
vn -0.558290 0.449002 0.697646
vn -0.397901 0.589328 -0.703113
vn -0.397901 0.589328 -0.703113
vn -0.397901 0.589328 -0.703113
vn -0.397901 0.589328 -0.703113
vn -0.397901 0.589328 -0.703113
vn -0.397901 0.589328 -0.703113
vn -0.647256 -0.634198 0.422909
vn -0.647256 -0.634198 0.422909
vn -0.647256 -0.634198 0.422909
vn -0.420610 -0.882431 0.210720
vn -0.420610 -0.882431 0.210720
vn -0.420610 -0.882431 0.210720
vn -0.676336 0.676927 0.290413
vn -0.676336 0.676927 0.290413
vn -0.676336 0.676927 0.290413
vn -0.942241 0.256000 0.215979
vn -0.942241 0.256000 0.215979
vn -0.942241 0.256000 0.215979
vn -0.689831 0.697019 -0.195699
vn -0.689831 0.697019 -0.195699
vn -0.689831 0.697019 -0.195699
vn -0.226250 -0.974041 0.007402
vn -0.226250 -0.974041 0.007402
vn -0.226250 -0.974041 0.007402
vn -0.959441 -0.281899 -0.002455
vn -0.959441 -0.281899 -0.002455
vn -0.959441 -0.281899 -0.002455
vn -0.798747 0.547873 -0.248672
vn -0.798747 0.547873 -0.248672
vn -0.798747 0.547873 -0.248672
vn -0.962311 0.222093 -0.156947
vn -0.962311 0.222093 -0.156947
vn -0.962311 0.222093 -0.156947
vn -0.470077 0.879799 -0.070577
vn -0.470077 0.879799 -0.070577
vn -0.470077 0.879799 -0.070577
vn -0.585238 -0.724773 -0.363594
vn -0.585238 -0.724773 -0.363594
vn -0.585238 -0.724773 -0.363594
vn -0.229378 -0.970476 -0.074575
vn -0.229378 -0.970476 -0.074575
vn -0.229378 -0.970476 -0.074575
vn -0.427330 0.302412 -0.852019
vn -0.427330 0.302412 -0.852019
vn -0.427330 0.302412 -0.852019
vn -0.481024 -0.570911 -0.665340
vn -0.481024 -0.570911 -0.665340
vn -0.481024 -0.570911 -0.665340
vn -0.110179 0.926374 -0.360128
vn -0.110179 0.926374 -0.360128
vn -0.110179 0.926374 -0.360128
vn -0.110179 0.926374 -0.360128
vn -0.110179 0.926374 -0.360128
vn -0.110179 0.926374 -0.360128
vn -0.115632 -0.973984 -0.194897
vn -0.115632 -0.973984 -0.194897
vn -0.115632 -0.973984 -0.194897
vn -0.236444 -0.170801 -0.956515
vn -0.236444 -0.170801 -0.956515
vn -0.236444 -0.170801 -0.956515
vn -0.059429 -0.918674 -0.390520
vn -0.059429 -0.918674 -0.390520
vn -0.059429 -0.918674 -0.390520
vn -0.207010 0.620002 -0.756799
vn -0.207010 0.620002 -0.756799
vn -0.207010 0.620002 -0.756799
vn -0.054892 0.365893 -0.929037
vn -0.054892 0.365893 -0.929037
vn -0.054892 0.365893 -0.929037
vn 0.099050 -0.632588 -0.768128
vn 0.099050 -0.632588 -0.768128
vn 0.099050 -0.632588 -0.768128
vn 0.749591 -0.149998 -0.644682
vn 0.749591 -0.149998 -0.644682
vn 0.749591 -0.149998 -0.644682
vn 0.749591 -0.149998 -0.644682
vn 0.749591 -0.149998 -0.644682
vn 0.749591 -0.149998 -0.644682
vn 0.004555 0.769370 -0.638788
vn 0.004555 0.769370 -0.638788
vn 0.004555 0.769370 -0.638788
vn 0.528973 0.443698 -0.723409
vn 0.528973 0.443698 -0.723409
vn 0.528973 0.443698 -0.723409
vn -0.092623 0.994418 0.050532
vn -0.092623 0.994418 0.050532
vn -0.092623 0.994418 0.050532
vn 0.288907 -0.881772 -0.372841
vn 0.288907 -0.881772 -0.372841
vn 0.288907 -0.881772 -0.372841
vn 0.633928 -0.497290 -0.592316
vn 0.633928 -0.497290 -0.592316
vn 0.633928 -0.497290 -0.592316
vn 0.469488 0.836287 -0.283206
vn 0.469488 0.836287 -0.283206
vn 0.469488 0.836287 -0.283206
vn 0.715594 -0.636875 -0.286906
vn 0.715594 -0.636875 -0.286906
vn 0.715594 -0.636875 -0.286906
vn 0.570357 0.821377 -0.005781
vn 0.570357 0.821377 -0.005781
vn 0.570357 0.821377 -0.005781
s off
g Mesh group48 pasted__group47 pasted__pasted__group14 pasted__pasted__pasted__polySurface49 polySurface1003 rocks_polySurface1
usemtl rocks_blinn3SG
f 55//1 54//2 2//3
f 55//4 2//5 5//6
f 54//7 3//8 2//9
f 2//10 3//11 4//12
f 3//13 29//14 8//15
f 4//16 8//17 12//18
f 4//19 12//20 9//21
f 12//22 15//23 10//24
f 13//25 18//26 8//27
f 8//28 18//29 14//30
f 14//31 15//32 12//33
f 18//34 16//35 14//36
f 11//37 15//38 28//39
f 15//40 16//41 19//42
f 17//43 29//44 30//45
f 18//46 20//47 16//48
f 16//49 20//50 21//51
f 30//52 23//53 17//54
f 23//55 22//56 17//57
f 22//58 24//59 20//60
f 24//61 26//62 20//63
f 22//64 23//65 25//66
f 28//67 27//68 38//69
f 24//70 25//71 31//72
f 23//73 30//74 25//75
f 27//76 32//77 38//78
f 30//79 29//80 46//81
f 26//82 31//83 33//84
f 26//85 32//86 27//87
f 25//88 30//89 35//90
f 38//91 53//92 34//93
f 36//94 39//95 33//96
f 39//97 42//98 33//99
f 46//100 40//101 35//102
f 37//103 42//104 53//105
f 41//106 43//107 39//108
f 43//109 49//110 42//111
f 43//112 48//113 49//114
f 44//115 48//116 43//117
f 47//118 50//119 44//120
f 45//121 49//122 52//123
f 34//124 53//125 7//126
f 50//127 55//128 48//129
f 50//130 1//131 54//132
f 50//133 54//134 55//135
f 52//136 7//137 53//138
f 51//139 55//140 5//141
f 6//142 51//143 5//144
f 52//145 6//146 7//147
f 3//148 1//149 29//150
f 6//151 10//152 7//153
f 7//154 10//155 11//156
f 5//157 2//158 9//159
f 9//160 2//161 4//162
f 10//163 6//164 9//165
f 9//166 6//167 5//168
f 7//169 11//170 34//171
f 34//172 11//173 28//174
f 4//175 3//176 8//177
f 9//178 12//179 10//180
f 8//181 29//182 13//183
f 12//184 8//185 14//186
f 26//187 27//188 20//189
f 20//190 27//191 21//192
f 10//193 15//194 11//195
f 13//196 29//197 17//198
f 15//199 14//200 16//201
f 13//202 17//203 18//204
f 28//205 15//206 19//207
f 19//208 16//209 21//210
f 17//211 22//212 18//213
f 18//214 22//215 20//216
f 36//217 35//218 41//219
f 41//220 35//221 40//222
f 19//223 21//224 27//225
f 28//226 19//227 27//228
f 22//229 25//230 24//231
f 24//232 31//233 26//234
f 31//235 25//236 35//237
f 28//238 38//239 34//240
f 26//241 33//242 32//243
f 31//244 35//245 36//246
f 31//247 36//248 33//249
f 30//250 46//251 35//252
f 32//253 33//254 37//255
f 38//256 32//257 37//258
f 36//259 41//260 39//261
f 37//262 33//263 42//264
f 40//265 46//266 47//267
f 47//268 46//269 1//270
f 38//271 37//272 53//273
f 39//274 43//275 42//276
f 53//277 42//278 45//279
f 40//280 44//281 41//282
f 41//283 44//284 43//285
f 42//286 49//287 45//288
f 55//289 51//290 48//291
f 48//292 51//293 49//294
f 40//295 47//296 44//297
f 44//298 50//299 48//300
f 46//301 29//302 1//303
f 53//304 45//305 52//306
f 52//307 49//308 51//309
f 47//310 1//311 50//312
f 52//313 51//314 6//315
f 54//316 1//317 3//318
