# Blender v2.78 (sub 0) OBJ File: ''
# www.blender.org
mtllib trash.mtl
o trash_03_Untitled
v 0.650000 3.484661 -1.039230
v 1.210700 4.387871 -0.068065
v 1.200125 0.050000 -0.086390
v 0.650000 0.050000 -1.039230
v 0.575000 3.458826 -1.082535
v 0.575000 0.050000 -1.082535
v -0.575000 0.050000 -1.082535
v -0.575000 3.458826 -1.082535
v -0.650000 3.484661 -1.039225
v -0.650000 0.050000 -1.039225
v -1.200120 0.050000 -0.086390
v -1.210700 4.387871 -0.068065
v -0.650000 3.484661 1.039235
v -1.210700 4.387871 0.068075
v -1.200120 0.050000 0.086395
v -0.650000 0.050000 1.039235
v -0.575000 3.458826 1.082535
v -0.575000 0.050000 1.082535
v 0.575000 0.050000 1.082535
v 0.575000 3.458826 1.082535
v 0.650000 3.484661 1.039235
v 0.650000 0.050000 1.039235
v 1.200125 0.050000 0.086395
v 1.210700 4.387871 0.068070
v 0.596135 0.000000 1.032535
v -0.596130 0.000000 1.032535
v -1.150000 0.000000 0.086605
v 1.150000 0.000000 0.086605
v 1.160825 4.437871 0.067860
v -1.160820 4.437871 0.067860
v -0.591945 3.542591 1.045660
v 0.591950 3.542591 1.045660
v 1.160825 4.437871 -0.067855
v 0.591950 3.542591 -1.045650
v -0.591945 3.542591 -1.045650
v -1.160820 4.437871 -0.067855
v -1.150000 -0.000000 -0.086600
v -0.596130 -0.000000 -1.032535
v 0.596135 -0.000000 -1.032535
v 1.150000 -0.000000 -0.086600
v 1.230350 4.418936 0.000005
v 1.225065 0.050000 0.000005
v -1.225060 0.050000 0.000005
v -1.230350 4.418936 0.000005
v 1.180415 4.468936 0.000005
v -1.180410 4.468936 0.000005
v -1.175000 0.000000 0.000005
v 1.175000 0.000000 0.000005
vt 0.6591 0.4653
vt 0.5094 0.5860
vt 0.5120 0.0068
vt 0.6589 0.0067
vt 0.6705 0.0067
vt 0.8240 0.0066
vt 0.8242 0.4618
vt 0.6707 0.4618
vt 0.8358 0.4652
vt 0.8356 0.0066
vt 0.9825 0.0066
vt 0.9856 0.5857
vt 0.1642 0.4652
vt 0.0144 0.5857
vt 0.0175 0.0066
vt 0.1644 0.0066
vt 0.1760 0.0066
vt 0.3295 0.0067
vt 0.3293 0.4618
vt 0.1758 0.4618
vt 0.3409 0.4653
vt 0.3411 0.0067
vt 0.4880 0.0068
vt 0.4905 0.5860
vt 0.6108 0.5711
vt 0.7370 0.4971
vt 0.7370 0.8041
vt 0.6108 0.7301
vt 0.2552 0.5100
vt 0.4326 0.5860
vt 0.4325 0.7444
vt 0.2552 0.8205
vt 0.0597 0.7444
vt 0.0597 0.5860
vt 0.2370 0.5099
vt 0.2370 0.8204
vt 0.8861 0.5711
vt 0.8861 0.7301
vt 0.7599 0.8041
vt 0.7599 0.4971
vt 0.5000 0.5901
vt 0.5000 0.0068
vt 0.9945 0.0066
vt 0.9950 0.5899
vt 0.2461 0.5082
vt 0.2461 0.8222
vt 0.7484 0.8073
vt 0.7484 0.4939
vt 0.0055 0.0066
vt 0.0050 0.5899
vt 0.8957 0.7283
vt 0.8894 0.7393
vt 0.8894 0.5619
vt 0.8957 0.5728
vt 0.6012 0.5729
vt 0.6075 0.5619
vt 0.6075 0.7393
vt 0.6012 0.7284
vt 0.0473 0.7427
vt 0.0537 0.7537
vt 0.0537 0.5767
vt 0.0473 0.5877
vt 0.4449 0.5877
vt 0.4385 0.5767
vt 0.4385 0.7537
vt 0.4449 0.7427
vt 0.7609 0.8136
vt 0.2335 0.8293
vt 0.7609 0.4875
vt 0.2335 0.5010
vt 0.7359 0.4876
vt 0.2587 0.5011
vt 0.7360 0.8137
vt 0.2587 0.8294
vt 0.7484 0.8169
vt 0.7484 0.4843
vt 0.2462 0.8312
vt 0.2460 0.4992
vn 0.6558 0.1722 -0.7351
vn 0.7910 0.3133 -0.5256
vn 0.8621 -0.3570 -0.3596
vn 0.6826 -0.3400 -0.6469
vn 0.2189 -0.3400 -0.9146
vn -0.2189 -0.3400 -0.9146
vn -0.2230 0.1694 -0.9600
vn 0.2230 0.1694 -0.9600
vn -0.6557 0.1715 -0.7353
vn -0.6821 -0.3388 -0.6480
vn -0.8626 -0.3566 -0.3588
vn -0.7916 0.3134 -0.5246
vn -0.6558 0.1722 0.7351
vn -0.7910 0.3133 0.5255
vn -0.8622 -0.3569 0.3595
vn -0.6826 -0.3400 0.6469
vn -0.2189 -0.3400 0.9146
vn 0.2189 -0.3400 0.9146
vn 0.2230 0.1694 0.9600
vn -0.2230 0.1694 0.9600
vn 0.6557 0.1714 0.7353
vn 0.6821 -0.3388 0.6480
vn 0.8626 -0.3566 0.3588
vn 0.7916 0.3134 0.5246
vn -0.2476 -0.8688 0.4289
vn -0.3914 -0.9026 0.1794
vn 0.3911 -0.9031 0.1775
vn 0.2467 -0.8688 0.4294
vn -0.3045 0.7476 0.5903
vn -0.2259 0.5323 0.8158
vn 0.2251 0.5320 0.8163
vn 0.3045 0.7481 0.5896
vn 0.2260 0.5323 -0.8158
vn -0.2251 0.5321 -0.8162
vn -0.3045 0.7481 -0.5896
vn 0.3045 0.7475 -0.5903
vn -0.2467 -0.8688 -0.4294
vn 0.2476 -0.8688 -0.4289
vn 0.3914 -0.9026 -0.1794
vn -0.3911 -0.9031 -0.1775
vn 0.9000 0.4360 0.0000
vn 0.9324 -0.3615 0.0000
vn -0.9324 -0.3615 0.0000
vn -0.9001 0.4358 -0.0003
vn -0.3984 0.9172 0.0000
vn 0.3984 0.9172 0.0000
vn 0.4376 -0.8992 0.0000
vn -0.4376 -0.8992 0.0000
s 1
f 1/1/1 2/2/2 3/3/3
f 3/3/3 4/4/4 1/1/1
f 6/5/5 7/6/6 8/7/7
f 8/7/7 5/8/8 6/5/5
f 9/9/9 10/10/10 11/11/11
f 11/11/11 12/12/12 9/9/9
f 13/13/13 14/14/14 15/15/15
f 15/15/15 16/16/16 13/13/13
f 18/17/17 19/18/18 20/19/19
f 20/19/19 17/20/20 18/17/17
f 21/21/21 22/22/22 23/23/23
f 23/23/23 24/24/24 21/21/21
f 26/25/25 27/26/26 28/27/27
f 28/27/27 25/28/28 26/25/25
f 30/29/29 31/30/30 32/31/31
f 32/31/31 29/32/32 30/29/29
f 34/33/33 35/34/34 36/35/35
f 36/35/35 33/36/36 34/33/33
f 38/37/37 39/38/38 40/39/39
f 40/39/39 37/40/40 38/37/37
f 2/2/2 41/41/41 42/42/42
f 42/42/42 3/3/3 2/2/2
f 43/43/43 44/44/44 12/12/12
f 12/12/12 11/11/11 43/43/43
f 46/45/45 30/29/29 29/32/32
f 29/32/32 45/46/46 46/45/45
f 48/47/47 28/27/27 27/26/26
f 27/26/26 47/48/48 48/47/47
f 24/24/24 23/23/23 42/42/42
f 42/42/42 41/41/41 24/24/24
f 43/49/43 15/15/15 14/14/14
f 14/14/14 44/50/44 43/49/43
f 36/35/35 46/45/45 45/46/46
f 45/46/46 33/36/36 36/35/35
f 40/39/39 48/47/47 47/48/48
f 47/48/48 37/40/40 40/39/39
f 39/38/38 6/51/5 4/52/4
f 38/37/37 10/53/10 7/54/6
f 26/25/25 18/55/17 16/56/16
f 25/28/28 22/57/22 19/58/18
f 5/59/8 34/33/33 1/60/1
f 9/61/9 35/34/34 8/62/7
f 17/63/20 31/30/30 13/64/13
f 21/65/21 32/31/31 20/66/19
f 4/52/4 3/67/3 40/39/39
f 40/39/39 39/38/38 4/52/4
f 5/8/8 1/1/1 4/4/4
f 4/4/4 6/5/5 5/8/8
f 2/68/2 1/60/1 34/33/33
f 34/33/33 33/36/36 2/68/2
f 6/51/5 39/38/38 38/37/37
f 38/37/37 7/54/6 6/51/5
f 8/7/7 7/6/6 10/10/10
f 10/10/10 9/9/9 8/7/7
f 8/62/7 35/34/34 34/33/33
f 34/33/33 5/59/8 8/62/7
f 37/40/40 11/69/11 10/53/10
f 10/53/10 38/37/37 37/40/40
f 35/34/34 9/61/9 12/70/12
f 12/70/12 36/35/35 35/34/34
f 16/56/16 15/71/15 27/26/26
f 27/26/26 26/25/25 16/56/16
f 17/20/20 13/13/13 16/16/16
f 16/16/16 18/17/17 17/20/20
f 14/72/14 13/64/13 31/30/30
f 31/30/30 30/29/29 14/72/14
f 18/55/17 26/25/25 25/28/28
f 25/28/28 19/58/18 18/55/17
f 20/19/19 19/18/18 22/22/22
f 22/22/22 21/21/21 20/19/19
f 20/66/19 32/31/31 31/30/30
f 31/30/30 17/63/20 20/66/19
f 28/27/27 23/73/23 22/57/22
f 22/57/22 25/28/28 28/27/27
f 32/31/31 21/65/21 24/74/24
f 24/74/24 29/32/32 32/31/31
f 48/47/47 42/75/42 23/73/23
f 23/73/23 28/27/27 48/47/47
f 47/48/48 43/76/43 11/69/11
f 11/69/11 37/40/40 47/48/48
f 41/77/41 45/46/46 29/32/32
f 29/32/32 24/74/24 41/77/41
f 44/78/44 46/45/45 36/35/35
f 36/35/35 12/70/12 44/78/44
f 3/67/3 42/75/42 48/47/47
f 48/47/47 40/39/39 3/67/3
f 15/71/15 43/76/43 47/48/48
f 47/48/48 27/26/26 15/71/15
f 33/36/36 45/46/46 41/77/41
f 41/77/41 2/68/2 33/36/36
f 30/29/29 46/45/45 44/78/44
f 44/78/44 14/72/14 30/29/29
